<?xml version="1.0" encoding="UTF-8" standalone="no"?>
<!-- Created with Inkscape (http://www.inkscape.org/) -->

<svg
   width="210mm"
   height="297mm"
   viewBox="0 0 210 297"
   version="1.1"
   id="svg5"
   inkscape:version="1.2.1 (9c6d41e4, 2022-07-14)"
   sodipodi:docname="hnsw-index-building.svg"
   xmlns:inkscape="http://www.inkscape.org/namespaces/inkscape"
   xmlns:sodipodi="http://sodipodi.sourceforge.net/DTD/sodipodi-0.dtd"
   xmlns="http://www.w3.org/2000/svg"
   xmlns:svg="http://www.w3.org/2000/svg">
  <sodipodi:namedview
     id="namedview7"
     pagecolor="#ffffff"
     bordercolor="#999999"
     borderopacity="1"
     inkscape:showpageshadow="0"
     inkscape:pageopacity="0"
     inkscape:pagecheckerboard="0"
     inkscape:deskcolor="#d1d1d1"
     inkscape:document-units="mm"
     showgrid="true"
     inkscape:zoom="1.5236514"
     inkscape:cx="99.432191"
     inkscape:cy="225.11711"
     inkscape:window-width="1792"
     inkscape:window-height="1092"
     inkscape:window-x="0"
     inkscape:window-y="28"
     inkscape:window-maximized="0"
     inkscape:current-layer="layer1">
    <inkscape:grid
       type="xygrid"
       id="grid686" />
  </sodipodi:namedview>
  <defs
     id="defs2">
    <clipPath
       clipPathUnits="userSpaceOnUse"
       id="clipPath6244">
      <path
         id="path6246"
         style="fill:#ff0000;fill-opacity:1;fill-rule:nonzero;stroke:none;stroke-width:0.264583"
         d="m 63.711873,148.56199 v 27.46551 h 94.211307 v -27.46551 z m 10.771952,14.41152 v 5.3e-4 c 0.01622,-8e-5 0.03225,0.001 0.04858,0.004 0.04675,-0.001 0.05019,-0.001 0.07028,-0.002 -0.0057,2.6e-4 -0.0099,5.2e-4 -0.01138,10e-4 0.0013,0.001 0.02471,0.002 0.0956,0.003 0.03697,0 0.07362,-0.003 0.110588,-0.003 0.02801,0 0.05622,0.005 0.08423,0.006 0.04583,0.001 0.09164,-0.003 0.137459,-0.003 0.03579,0 0.07123,0.003 0.106971,0.005 0.09946,-0.004 0.147661,-0.007 0.176215,-0.008 -0.03967,0.003 -0.0821,0.007 0.07493,0.007 0.04825,0 0.09593,-0.005 0.144179,-0.005 0.03267,0 0.06551,0.005 0.09819,0.005 0.04864,0 0.09709,-0.006 0.145727,-0.006 0.03204,0 0.06413,0.003 0.09612,0.005 0.06593,-0.003 0.102057,-0.004 0.130225,-0.005 -0.0019,2.4e-4 -0.0034,8e-4 -0.0041,0.001 0.0013,0.001 0.02585,0.003 0.101286,0.004 0.04504,0 0.08983,-0.005 0.134874,-0.005 0.03171,0 0.06337,0.005 0.09508,0.005 0.04519,0 0.0902,-0.005 0.135393,-0.006 0.02695,0 0.05367,0.002 0.08061,0.003 0.03542,-0.002 0.07098,-0.006 0.106455,-0.006 0.01707,0 0.03357,0.005 0.05064,0.006 0.03489,0.001 0.06999,-2.6e-4 0.104902,5.3e-4 0.03594,0.001 0.07205,0.006 0.108003,0.005 0.04995,-0.001 0.09942,-0.006 0.149344,-0.008 0.02792,-8e-4 0.05578,0 0.08372,0 l 5.29e-4,0.6997 c -0.02794,0 -0.05631,7.9e-4 -0.08423,0 -0.04371,-0.002 -0.08711,-0.006 -0.130742,-0.007 -7.93e-4,0.0763 -0.0013,0.15261 -0.0021,0.22893 0.0013,0.15058 0.0028,0.30107 0.0041,0.45165 -2.64e-4,-2.2e-4 -7.94e-4,-2.5e-4 -0.0011,-5.3e-4 -0.0024,-2.2e-4 -0.0048,-2.4e-4 -0.0072,-5.3e-4 -0.04109,-0.004 -0.08281,-0.005 -0.124024,-0.002 -0.09001,-0.012 -0.181528,0.001 -0.271819,-0.003 -0.121177,-0.006 -0.245404,2.6e-4 -0.366901,-5.3e-4 -0.09964,-0.004 -0.199509,0.003 -0.299209,5.3e-4 -0.08471,-0.005 -0.170043,0.001 -0.254765,0.002 -0.0534,-0.002 -0.107312,-0.002 -0.160713,0.001 -0.01799,0.001 -0.01561,-0.005 -0.03359,-0.008 -0.06612,-0.009 -0.15617,-0.006 -0.218591,-0.006 v -0.6625 c -0.02169,-8e-4 -0.03067,-0.002 -0.06149,-0.003 -0.03575,10e-4 -0.07118,0.004 -0.106971,0.005 -0.04583,0.001 -0.09164,-0.004 -0.137459,-0.003 -0.02801,0 -0.05571,0.006 -0.08372,0.006 -0.03697,0.001 -0.07413,-0.003 -0.111104,-0.003 -0.07088,8e-4 -0.09479,0.002 -0.09612,0.003 0.01135,0.003 0.184762,0.006 -0.05839,5.3e-4 -0.01696,0.001 -0.03381,0.002 -0.05064,0.004 -0.01632,0.002 0.0024,0.007 -0.01497,0.0114 -0.08282,0.019 -0.140653,0.0225 -0.221692,0.0165 5.29e-4,-5e-5 0.0011,-2.3e-4 0.0011,-5.3e-4 0.0054,-0.0246 0.01087,-0.0497 0.01601,-0.0744 -0.02685,0.0224 -0.05408,0.0441 -0.08165,0.0656 -0.0011,7.9e-4 -0.0021,0.002 -0.0031,0.003 -0.0097,0.008 -0.03686,0.002 -0.03566,-0.01 0.01236,-0.12818 0.02736,-0.25651 0.04651,-0.38396 l -0.287319,0.0207 c -2.65e-4,2.2e-4 -7.94e-4,2.4e-4 -0.0011,5.3e-4 l -0.0011,-5.3e-4 h 0.0021 c 0.109579,-0.0825 0.216291,-0.16868 0.326593,-0.25012 -0.0149,0.0759 -0.02778,0.15239 -0.03927,0.22893 l 0.134876,-0.01 c 0.01521,-0.0956 0.02923,-0.19136 0.04134,-0.28732 0.0011,-0.009 -0.01505,-0.0134 -0.02479,-0.0109 0.0037,7.9e-4 0.0036,5.3e-4 -0.0021,5.3e-4 -7.94e-4,2.5e-4 -0.0019,5.3e-4 -0.0026,0.001 -0.03632,0.025 -0.07205,0.0503 -0.107487,0.0765 0.0057,-0.0292 0.01228,-0.0577 0.0186,-0.0868 0.0067,-0.002 0.05823,0.004 0.0832,0.007 0.05111,-0.0117 0.102536,-0.0245 0.154511,-0.0248 z m -0.181385,0.0269 c -0.0063,5.3e-4 -0.01199,0.002 -0.02326,0.006 -0.0019,0.001 -0.006,0.004 -0.0041,0.004 0.01572,-0.003 0.03176,-0.006 0.04754,-0.01 -7.94e-4,-7e-5 -7.94e-4,7e-5 -0.0016,0 -0.0047,0 -0.0087,-2e-5 -0.01188,0 -0.0024,1e-5 -0.0046,-1.8e-4 -0.0067,0 z m -0.118853,0.70021 c 0.0011,9e-5 0.0013,-2.1e-4 0.0031,0 0.01548,0.002 0.03061,0.005 0.04599,0.008 -0.01582,-0.002 -0.04078,-0.006 -0.04909,-0.008 z m 4.414199,1.14257 c 0.0093,-5.3e-4 0.02106,0.0301 0.03514,0.1018 0.03508,-0.003 0.107778,0.0424 0.151413,0.0455 0.127786,0.008 0.255952,0.0144 0.383955,0.0113 1.468311,-0.037 -0.04949,-0.0331 0.671793,-0.0331 v 1.60042 c -0.721272,0 0.796518,0.005 -0.671793,-0.0326 -0.128003,-0.003 -0.256169,0.003 -0.383955,0.0109 -0.04363,0.003 -0.116329,0.0486 -0.151413,0.0455 -0.02974,0.15152 -0.04797,0.12157 -0.05788,-0.008 -0.228711,-0.0243 -0.01159,-0.005 -0.30644,-0.0129 -0.09091,-0.002 -0.181912,-0.0108 -0.272852,-0.0114 -0.06265,0 -0.124944,0.009 -0.187584,0.0109 -0.367676,0.006 -0.0812,-0.0154 -0.337966,0.008 -0.343072,0.007 -0.686173,-0.0237 -1.029393,-0.005 -0.236204,-0.0105 -0.472048,-0.002 -0.707969,0.005 -0.122701,0.003 -0.132813,7.9e-4 -0.132808,-5.3e-4 -0.0011,-2.4e-4 -0.01037,0.001 -0.07183,0.007 -0.172842,0 -0.347215,-0.01 -0.519867,5.3e-4 -0.12833,0.005 -0.256693,-0.009 -0.384987,0.002 -0.05826,-0.009 -0.117263,0.007 -0.175183,0.003 -0.01638,3e-5 -0.0099,-0.001 -0.02016,0.001 v -1.64435 c 0.01027,0.002 0.0038,4e-5 0.02016,5.3e-4 0.05792,-0.004 0.116914,0.0125 0.175183,0.003 0.128294,0.011 0.256657,-0.003 0.384987,0.002 0.172652,0.01 0.347025,0.001 0.519867,0.001 0.06146,0.006 0.07085,0.008 0.07183,0.007 1.1e-5,-0.001 0.01011,-0.005 0.132808,-5.2e-4 0.235921,0.006 0.471765,0.0149 0.707969,0.005 0.34322,0.0192 0.686321,-0.0109 1.029393,-0.005 0.256765,0.0231 -0.02971,0.002 0.337966,0.008 0.06264,0.001 0.124936,0.01 0.187584,0.01 0.09094,-5.3e-4 0.181944,-0.009 0.272852,-0.0114 0.29487,-0.007 0.07773,0.0115 0.30644,-0.0129 0.0052,-0.0682 0.01249,-0.10924 0.02273,-0.11059 z m -2.590022,2.2226 c 0.0028,-2.5e-4 0.0054,-1.8e-4 0.0083,0 0.061,0.004 0.121558,0.0111 0.182417,0.017 0.110019,-0.007 0.220695,0.002 0.330729,-0.002 0.02745,-0.001 0.05436,-0.006 0.08165,-0.009 0.02996,2.6e-4 0.05997,0.001 0.08992,5.3e-4 0.01638,-0.001 0.03271,-0.005 0.04909,-0.005 0.04662,0.001 0.09302,0.007 0.139528,0.0103 0.0858,-0.002 0.195455,-0.0102 0.276984,0.0165 0.238842,0.0782 0.405109,0.20465 0.365353,0.48731 l 0.116789,0.002 c 0.0669,-0.0106 0.134996,-0.005 0.202055,-0.0145 0.02246,-0.003 0.04358,-0.0135 0.06615,-0.0155 0.05242,-0.004 0.105539,-0.002 0.15813,-0.004 0.159076,-0.006 0.03955,-0.007 0.192752,-0.002 0.04444,-0.001 0.08806,5.3e-4 0.132292,-5.3e-4 0.0057,0 0.01132,-0.002 0.01707,-0.003 v -0.001 c 0.0019,-9e-5 0.0038,0 0.0057,5.3e-4 0.07384,0.0195 0.145986,0.0446 0.219107,0.0667 0.13105,0.15733 0.280056,0.25405 0.112138,0.51315 -0.06171,0.0952 -0.198893,0.10995 -0.298172,0.16485 l -0.02016,-0.71676 c -0.09491,0.0548 -0.226841,0.0712 -0.284737,0.16433 -0.156496,0.25153 -0.01884,0.33403 0.109553,0.47698 0.06091,0.0144 0.122108,0.0262 0.182417,0.0429 0.0096,0.002 -0.01955,-8e-4 -0.02945,-5.3e-4 -0.01551,0 -0.031,0.002 -0.04651,0.002 -0.03368,0 -0.06776,-0.001 -0.101285,-0.004 -0.0084,-0.001 -0.01619,-0.005 -0.02429,-0.007 -0.04462,-0.002 -0.08917,-0.008 -0.133842,-0.008 -0.120433,0.002 -0.240157,0.0296 -0.360186,0.0336 -0.03306,0.001 -0.06573,-0.005 -0.0987,-0.008 l -0.169497,0.003 c -0.04688,-0.003 -0.09362,-0.008 -0.14056,-0.008 -0.06879,0.001 -0.137401,0.009 -0.20619,0.009 -0.04381,0 -0.08745,-0.009 -0.13126,-0.009 -0.476932,-0.004 0.0217,0.0189 -0.364834,-0.002 -0.07626,0.004 -0.152667,0.007 -0.228928,0.0104 -0.04863,-0.001 -0.09707,-0.006 -0.145727,-0.005 -0.06457,0.001 -0.12872,0.009 -0.19327,0.0114 -0.03167,0.001 -0.06342,-0.003 -0.09508,-0.002 -0.181695,0.006 -0.05797,0.0128 -0.15348,0.006 -0.04202,0.001 -0.05798,0.002 -0.06718,0.002 0.0136,-0.001 0.02625,-0.004 -0.04806,-0.008 -0.03885,-0.002 -0.07789,-10e-4 -0.116787,-0.002 -0.04392,-0.001 -0.08785,-0.005 -0.131776,-0.005 -0.05796,10e-4 -0.115713,0.008 -0.173633,0.0103 -0.02792,10e-4 -0.05578,0 -0.08372,0 v -0.70177 c 0.02794,0 0.05581,-0.001 0.08372,0 0.05792,0.002 0.115673,0.009 0.173633,0.01 0.03118,7.9e-4 0.06236,-0.001 0.09354,-0.003 v -0.49971 c 0.0537,0 0.248136,8e-4 0.308506,-0.003 0.02029,-0.001 0.04038,-0.006 0.06046,-0.009 0.02133,1.4e-4 0.04276,10e-4 0.06408,5.3e-4 0.0085,0 0.01685,-0.002 0.02532,-0.003 z m 1.071253,0.0357 c -0.122393,0.0697 -0.321035,0.0761 -0.366903,0.20929 -0.03032,0.088 -0.02752,0.18266 -0.0078,0.27698 0.05995,-0.003 -0.07065,0.004 0.296622,0.001 0.02606,0 0.05204,-0.003 0.07803,-0.005 z" />
    </clipPath>
    <clipPath
       clipPathUnits="userSpaceOnUse"
       id="clipPath6326">
      <path
         id="path6328"
         style="fill:#ff0000;fill-opacity:1;fill-rule:nonzero;stroke:none;stroke-width:0.264583"
         d="m 76.010347,148.56199 v 14.41514 0.005 c 0.01572,7.9e-4 0.04083,10e-4 0.07855,0.002 0.04504,0 0.08983,-0.005 0.134874,-0.005 0.01707,0 0.0341,0.002 0.05116,0.003 v -14.41928 z m 0.03204,15.78147 c -0.01074,1.5e-4 -0.0213,7.9e-4 -0.03204,0.001 v 0.62322 c 0.0882,0.002 0.176331,0.003 0.264583,0.002 v -0.62581 c -0.04031,5.2e-4 -0.08047,10e-4 -0.120404,10e-4 -0.03737,-0.002 -0.07473,-0.002 -0.112138,-10e-4 z m 0.132807,2.22467 c -0.05496,1.6e-4 -0.109908,0.001 -0.164848,0.003 v 0.49454 c 0.0019,-5e-5 0.0037,-1.2e-4 0.0057,0 0.061,0.004 0.121558,0.0111 0.182417,0.017 0.02545,-0.002 0.05098,-0.002 0.07648,-0.003 v -0.5116 c -0.03328,-5.3e-4 -0.06647,-5.3e-4 -0.09974,-5.3e-4 z m 0.0863,1.69292 v 5.3e-4 c -0.06457,0.001 -0.128717,0.009 -0.19327,0.0114 -0.01929,5.3e-4 -0.03858,-8e-4 -0.05788,-0.002 v 7.75663 h 0.264583 v -7.76645 c -0.0044,-1e-5 -0.009,-7e-5 -0.01344,0 z" />
    </clipPath>
    <marker
       style="overflow:visible"
       id="Arrow2Lend"
       refX="0"
       refY="0"
       orient="auto"
       inkscape:stockid="Arrow2Lend"
       inkscape:isstock="true"
       viewBox="0 0 12.705841 9.5264135"
       markerWidth="12.705841"
       markerHeight="9.5264139"
       preserveAspectRatio="xMidYMid">
      <path
         transform="matrix(-1.1,0,0,-1.1,-1.1,0)"
         d="M 8.7185878,4.0337352 -2.2072895,0.01601326 8.7185884,-4.0017078 c -1.7454984,2.3720609 -1.7354408,5.6174519 -6e-7,8.035443 z"
         style="fill:context-stroke;fill-rule:evenodd;stroke:context-stroke;stroke-width:0.625;stroke-linejoin:round"
         id="path17484" />
    </marker>
    <marker
       style="overflow:visible"
       id="marker2057"
       refX="0"
       refY="0"
       orient="auto"
       inkscape:stockid="Arrow2Lend"
       inkscape:isstock="true"
       viewBox="0 0 12.705841 9.5264135"
       markerWidth="12.705841"
       markerHeight="9.5264139"
       preserveAspectRatio="xMidYMid">
      <path
         transform="matrix(-1.1,0,0,-1.1,-1.1,0)"
         d="M 8.7185878,4.0337352 -2.2072895,0.01601326 8.7185884,-4.0017078 c -1.7454984,2.3720609 -1.7354408,5.6174519 -6e-7,8.035443 z"
         style="fill:context-stroke;fill-rule:evenodd;stroke:context-stroke;stroke-width:0.625;stroke-linejoin:round"
         id="path2055" />
    </marker>
    <marker
       style="overflow:visible"
       id="marker2061"
       refX="0"
       refY="0"
       orient="auto"
       inkscape:stockid="Arrow2Lend"
       inkscape:isstock="true"
       viewBox="0 0 12.705841 9.5264135"
       markerWidth="12.705841"
       markerHeight="9.5264139"
       preserveAspectRatio="xMidYMid">
      <path
         transform="matrix(-1.1,0,0,-1.1,-1.1,0)"
         d="M 8.7185878,4.0337352 -2.2072895,0.01601326 8.7185884,-4.0017078 c -1.7454984,2.3720609 -1.7354408,5.6174519 -6e-7,8.035443 z"
         style="fill:context-stroke;fill-rule:evenodd;stroke:context-stroke;stroke-width:0.625;stroke-linejoin:round"
         id="path2059" />
    </marker>
    <marker
       style="overflow:visible"
       id="marker2065"
       refX="0"
       refY="0"
       orient="auto"
       inkscape:stockid="Arrow2Lend"
       inkscape:isstock="true"
       viewBox="0 0 12.705841 9.5264135"
       markerWidth="12.705841"
       markerHeight="9.5264139"
       preserveAspectRatio="xMidYMid">
      <path
         transform="matrix(-1.1,0,0,-1.1,-1.1,0)"
         d="M 8.7185878,4.0337352 -2.2072895,0.01601326 8.7185884,-4.0017078 c -1.7454984,2.3720609 -1.7354408,5.6174519 -6e-7,8.035443 z"
         style="fill:context-stroke;fill-rule:evenodd;stroke:context-stroke;stroke-width:0.625;stroke-linejoin:round"
         id="path2063" />
    </marker>
    <marker
       style="overflow:visible"
       id="marker2069"
       refX="0"
       refY="0"
       orient="auto"
       inkscape:stockid="Arrow2Lend"
       inkscape:isstock="true"
       viewBox="0 0 12.705841 9.5264135"
       markerWidth="12.705841"
       markerHeight="9.5264139"
       preserveAspectRatio="xMidYMid">
      <path
         transform="matrix(-1.1,0,0,-1.1,-1.1,0)"
         d="M 8.7185878,4.0337352 -2.2072895,0.01601326 8.7185884,-4.0017078 c -1.7454984,2.3720609 -1.7354408,5.6174519 -6e-7,8.035443 z"
         style="fill:context-stroke;fill-rule:evenodd;stroke:context-stroke;stroke-width:0.625;stroke-linejoin:round"
         id="path2067" />
    </marker>
    <marker
       style="overflow:visible"
       id="marker2073"
       refX="0"
       refY="0"
       orient="auto"
       inkscape:stockid="Arrow2Lend"
       inkscape:isstock="true"
       viewBox="0 0 12.705841 9.5264135"
       markerWidth="12.705841"
       markerHeight="9.5264139"
       preserveAspectRatio="xMidYMid">
      <path
         transform="matrix(-1.1,0,0,-1.1,-1.1,0)"
         d="M 8.7185878,4.0337352 -2.2072895,0.01601326 8.7185884,-4.0017078 c -1.7454984,2.3720609 -1.7354408,5.6174519 -6e-7,8.035443 z"
         style="fill:context-stroke;fill-rule:evenodd;stroke:context-stroke;stroke-width:0.625;stroke-linejoin:round"
         id="path2071" />
    </marker>
    <marker
       style="overflow:visible"
       id="marker2077"
       refX="0"
       refY="0"
       orient="auto"
       inkscape:stockid="Arrow2Lend"
       inkscape:isstock="true"
       viewBox="0 0 12.705841 9.5264135"
       markerWidth="12.705841"
       markerHeight="9.5264139"
       preserveAspectRatio="xMidYMid">
      <path
         transform="matrix(-1.1,0,0,-1.1,-1.1,0)"
         d="M 8.7185878,4.0337352 -2.2072895,0.01601326 8.7185884,-4.0017078 c -1.7454984,2.3720609 -1.7354408,5.6174519 -6e-7,8.035443 z"
         style="fill:context-stroke;fill-rule:evenodd;stroke:context-stroke;stroke-width:0.625;stroke-linejoin:round"
         id="path2075" />
    </marker>
    <marker
       style="overflow:visible"
       id="marker2081"
       refX="0"
       refY="0"
       orient="auto"
       inkscape:stockid="Arrow2Lend"
       inkscape:isstock="true"
       viewBox="0 0 12.705841 9.5264135"
       markerWidth="12.705841"
       markerHeight="9.5264139"
       preserveAspectRatio="xMidYMid">
      <path
         transform="matrix(-1.1,0,0,-1.1,-1.1,0)"
         d="M 8.7185878,4.0337352 -2.2072895,0.01601326 8.7185884,-4.0017078 c -1.7454984,2.3720609 -1.7354408,5.6174519 -6e-7,8.035443 z"
         style="fill:context-stroke;fill-rule:evenodd;stroke:context-stroke;stroke-width:0.625;stroke-linejoin:round"
         id="path2079" />
    </marker>
    <marker
       style="overflow:visible"
       id="marker2085"
       refX="0"
       refY="0"
       orient="auto"
       inkscape:stockid="Arrow2Lend"
       inkscape:isstock="true"
       viewBox="0 0 12.705841 9.5264135"
       markerWidth="12.705841"
       markerHeight="9.5264139"
       preserveAspectRatio="xMidYMid">
      <path
         transform="matrix(-1.1,0,0,-1.1,-1.1,0)"
         d="M 8.7185878,4.0337352 -2.2072895,0.01601326 8.7185884,-4.0017078 c -1.7454984,2.3720609 -1.7354408,5.6174519 -6e-7,8.035443 z"
         style="fill:context-stroke;fill-rule:evenodd;stroke:context-stroke;stroke-width:0.625;stroke-linejoin:round"
         id="path2083" />
    </marker>
    <marker
       style="overflow:visible"
       id="marker2089"
       refX="0"
       refY="0"
       orient="auto"
       inkscape:stockid="Arrow2Lend"
       inkscape:isstock="true"
       viewBox="0 0 12.705841 9.5264135"
       markerWidth="12.705841"
       markerHeight="9.5264139"
       preserveAspectRatio="xMidYMid">
      <path
         transform="matrix(-1.1,0,0,-1.1,-1.1,0)"
         d="M 8.7185878,4.0337352 -2.2072895,0.01601326 8.7185884,-4.0017078 c -1.7454984,2.3720609 -1.7354408,5.6174519 -6e-7,8.035443 z"
         style="fill:context-stroke;fill-rule:evenodd;stroke:context-stroke;stroke-width:0.625;stroke-linejoin:round"
         id="path2087" />
    </marker>
    <marker
       style="overflow:visible"
       id="marker2093"
       refX="0"
       refY="0"
       orient="auto"
       inkscape:stockid="Arrow2Lend"
       inkscape:isstock="true"
       viewBox="0 0 12.705841 9.5264135"
       markerWidth="12.705841"
       markerHeight="9.5264139"
       preserveAspectRatio="xMidYMid">
      <path
         transform="matrix(-1.1,0,0,-1.1,-1.1,0)"
         d="M 8.7185878,4.0337352 -2.2072895,0.01601326 8.7185884,-4.0017078 c -1.7454984,2.3720609 -1.7354408,5.6174519 -6e-7,8.035443 z"
         style="fill:context-stroke;fill-rule:evenodd;stroke:context-stroke;stroke-width:0.625;stroke-linejoin:round"
         id="path2091" />
    </marker>
    <marker
       style="overflow:visible"
       id="marker2097"
       refX="0"
       refY="0"
       orient="auto"
       inkscape:stockid="Arrow2Lend"
       inkscape:isstock="true"
       viewBox="0 0 12.705841 9.5264135"
       markerWidth="12.705841"
       markerHeight="9.5264139"
       preserveAspectRatio="xMidYMid">
      <path
         transform="matrix(-1.1,0,0,-1.1,-1.1,0)"
         d="M 8.7185878,4.0337352 -2.2072895,0.01601326 8.7185884,-4.0017078 c -1.7454984,2.3720609 -1.7354408,5.6174519 -6e-7,8.035443 z"
         style="fill:context-stroke;fill-rule:evenodd;stroke:context-stroke;stroke-width:0.625;stroke-linejoin:round"
         id="path2095" />
    </marker>
    <marker
       style="overflow:visible"
       id="Arrow2Lend-9"
       refX="0"
       refY="0"
       orient="auto"
       inkscape:stockid="Arrow2Lend"
       inkscape:isstock="true"
       viewBox="0 0 12.705841 9.5264135"
       markerWidth="12.705841"
       markerHeight="9.5264139"
       preserveAspectRatio="xMidYMid">
      <path
         transform="matrix(-1.1,0,0,-1.1,-1.1,0)"
         d="M 8.7185878,4.0337352 -2.2072895,0.01601326 8.7185884,-4.0017078 c -1.7454984,2.3720609 -1.7354408,5.6174519 -6e-7,8.035443 z"
         style="fill:context-stroke;fill-rule:evenodd;stroke:context-stroke;stroke-width:0.625;stroke-linejoin:round"
         id="path17484-9" />
    </marker>
    <marker
       style="overflow:visible"
       id="marker4689"
       refX="0"
       refY="0"
       orient="auto"
       inkscape:stockid="Arrow2Lend"
       inkscape:isstock="true"
       viewBox="0 0 12.705841 9.5264135"
       markerWidth="12.705841"
       markerHeight="9.5264139"
       preserveAspectRatio="xMidYMid">
      <path
         transform="matrix(-1.1,0,0,-1.1,-1.1,0)"
         d="M 8.7185878,4.0337352 -2.2072895,0.01601326 8.7185884,-4.0017078 c -1.7454984,2.3720609 -1.7354408,5.6174519 -6e-7,8.035443 z"
         style="fill:context-stroke;fill-rule:evenodd;stroke:context-stroke;stroke-width:0.625;stroke-linejoin:round"
         id="path4687" />
    </marker>
    <marker
       style="overflow:visible"
       id="marker4693"
       refX="0"
       refY="0"
       orient="auto"
       inkscape:stockid="Arrow2Lend"
       inkscape:isstock="true"
       viewBox="0 0 12.705841 9.5264135"
       markerWidth="12.705841"
       markerHeight="9.5264139"
       preserveAspectRatio="xMidYMid">
      <path
         transform="matrix(-1.1,0,0,-1.1,-1.1,0)"
         d="M 8.7185878,4.0337352 -2.2072895,0.01601326 8.7185884,-4.0017078 c -1.7454984,2.3720609 -1.7354408,5.6174519 -6e-7,8.035443 z"
         style="fill:context-stroke;fill-rule:evenodd;stroke:context-stroke;stroke-width:0.625;stroke-linejoin:round"
         id="path4691" />
    </marker>
    <marker
       style="overflow:visible"
       id="marker4697"
       refX="0"
       refY="0"
       orient="auto"
       inkscape:stockid="Arrow2Lend"
       inkscape:isstock="true"
       viewBox="0 0 12.705841 9.5264135"
       markerWidth="12.705841"
       markerHeight="9.5264139"
       preserveAspectRatio="xMidYMid">
      <path
         transform="matrix(-1.1,0,0,-1.1,-1.1,0)"
         d="M 8.7185878,4.0337352 -2.2072895,0.01601326 8.7185884,-4.0017078 c -1.7454984,2.3720609 -1.7354408,5.6174519 -6e-7,8.035443 z"
         style="fill:context-stroke;fill-rule:evenodd;stroke:context-stroke;stroke-width:0.625;stroke-linejoin:round"
         id="path4695" />
    </marker>
    <marker
       style="overflow:visible"
       id="marker4701"
       refX="0"
       refY="0"
       orient="auto"
       inkscape:stockid="Arrow2Lend"
       inkscape:isstock="true"
       viewBox="0 0 12.705841 9.5264135"
       markerWidth="12.705841"
       markerHeight="9.5264139"
       preserveAspectRatio="xMidYMid">
      <path
         transform="matrix(-1.1,0,0,-1.1,-1.1,0)"
         d="M 8.7185878,4.0337352 -2.2072895,0.01601326 8.7185884,-4.0017078 c -1.7454984,2.3720609 -1.7354408,5.6174519 -6e-7,8.035443 z"
         style="fill:context-stroke;fill-rule:evenodd;stroke:context-stroke;stroke-width:0.625;stroke-linejoin:round"
         id="path4699" />
    </marker>
    <marker
       style="overflow:visible"
       id="marker4705"
       refX="0"
       refY="0"
       orient="auto"
       inkscape:stockid="Arrow2Lend"
       inkscape:isstock="true"
       viewBox="0 0 12.705841 9.5264135"
       markerWidth="12.705841"
       markerHeight="9.5264139"
       preserveAspectRatio="xMidYMid">
      <path
         transform="matrix(-1.1,0,0,-1.1,-1.1,0)"
         d="M 8.7185878,4.0337352 -2.2072895,0.01601326 8.7185884,-4.0017078 c -1.7454984,2.3720609 -1.7354408,5.6174519 -6e-7,8.035443 z"
         style="fill:context-stroke;fill-rule:evenodd;stroke:context-stroke;stroke-width:0.625;stroke-linejoin:round"
         id="path4703" />
    </marker>
    <marker
       style="overflow:visible"
       id="marker4709"
       refX="0"
       refY="0"
       orient="auto"
       inkscape:stockid="Arrow2Lend"
       inkscape:isstock="true"
       viewBox="0 0 12.705841 9.5264135"
       markerWidth="12.705841"
       markerHeight="9.5264139"
       preserveAspectRatio="xMidYMid">
      <path
         transform="matrix(-1.1,0,0,-1.1,-1.1,0)"
         d="M 8.7185878,4.0337352 -2.2072895,0.01601326 8.7185884,-4.0017078 c -1.7454984,2.3720609 -1.7354408,5.6174519 -6e-7,8.035443 z"
         style="fill:context-stroke;fill-rule:evenodd;stroke:context-stroke;stroke-width:0.625;stroke-linejoin:round"
         id="path4707" />
    </marker>
    <marker
       style="overflow:visible"
       id="marker4713"
       refX="0"
       refY="0"
       orient="auto"
       inkscape:stockid="Arrow2Lend"
       inkscape:isstock="true"
       viewBox="0 0 12.705841 9.5264135"
       markerWidth="12.705841"
       markerHeight="9.5264139"
       preserveAspectRatio="xMidYMid">
      <path
         transform="matrix(-1.1,0,0,-1.1,-1.1,0)"
         d="M 8.7185878,4.0337352 -2.2072895,0.01601326 8.7185884,-4.0017078 c -1.7454984,2.3720609 -1.7354408,5.6174519 -6e-7,8.035443 z"
         style="fill:context-stroke;fill-rule:evenodd;stroke:context-stroke;stroke-width:0.625;stroke-linejoin:round"
         id="path4711" />
    </marker>
    <clipPath
       clipPathUnits="userSpaceOnUse"
       id="clipPath6244-4">
      <path
         id="path6246-8"
         style="fill:#ff0000;fill-opacity:1;fill-rule:nonzero;stroke:none;stroke-width:0.264583"
         d="m 63.711873,148.56199 v 27.46551 h 94.211307 v -27.46551 z m 10.771952,14.41152 v 5.3e-4 c 0.01622,-8e-5 0.03225,0.001 0.04858,0.004 0.04675,-0.001 0.05019,-0.001 0.07028,-0.002 -0.0057,2.6e-4 -0.0099,5.2e-4 -0.01138,10e-4 0.0013,0.001 0.02471,0.002 0.0956,0.003 0.03697,0 0.07362,-0.003 0.110588,-0.003 0.02801,0 0.05622,0.005 0.08423,0.006 0.04583,0.001 0.09164,-0.003 0.137459,-0.003 0.03579,0 0.07123,0.003 0.106971,0.005 0.09946,-0.004 0.147661,-0.007 0.176215,-0.008 -0.03967,0.003 -0.0821,0.007 0.07493,0.007 0.04825,0 0.09593,-0.005 0.144179,-0.005 0.03267,0 0.06551,0.005 0.09819,0.005 0.04864,0 0.09709,-0.006 0.145727,-0.006 0.03204,0 0.06413,0.003 0.09612,0.005 0.06593,-0.003 0.102057,-0.004 0.130225,-0.005 -0.0019,2.4e-4 -0.0034,8e-4 -0.0041,0.001 0.0013,0.001 0.02585,0.003 0.101286,0.004 0.04504,0 0.08983,-0.005 0.134874,-0.005 0.03171,0 0.06337,0.005 0.09508,0.005 0.04519,0 0.0902,-0.005 0.135393,-0.006 0.02695,0 0.05367,0.002 0.08061,0.003 0.03542,-0.002 0.07098,-0.006 0.106455,-0.006 0.01707,0 0.03357,0.005 0.05064,0.006 0.03489,0.001 0.06999,-2.6e-4 0.104902,5.3e-4 0.03594,0.001 0.07205,0.006 0.108003,0.005 0.04995,-0.001 0.09942,-0.006 0.149344,-0.008 0.02792,-8e-4 0.05578,0 0.08372,0 l 5.29e-4,0.6997 c -0.02794,0 -0.05631,7.9e-4 -0.08423,0 -0.04371,-0.002 -0.08711,-0.006 -0.130742,-0.007 -7.93e-4,0.0763 -0.0013,0.15261 -0.0021,0.22893 0.0013,0.15058 0.0028,0.30107 0.0041,0.45165 -2.64e-4,-2.2e-4 -7.94e-4,-2.5e-4 -0.0011,-5.3e-4 -0.0024,-2.2e-4 -0.0048,-2.4e-4 -0.0072,-5.3e-4 -0.04109,-0.004 -0.08281,-0.005 -0.124024,-0.002 -0.09001,-0.012 -0.181528,0.001 -0.271819,-0.003 -0.121177,-0.006 -0.245404,2.6e-4 -0.366901,-5.3e-4 -0.09964,-0.004 -0.199509,0.003 -0.299209,5.3e-4 -0.08471,-0.005 -0.170043,0.001 -0.254765,0.002 -0.0534,-0.002 -0.107312,-0.002 -0.160713,0.001 -0.01799,0.001 -0.01561,-0.005 -0.03359,-0.008 -0.06612,-0.009 -0.15617,-0.006 -0.218591,-0.006 v -0.6625 c -0.02169,-8e-4 -0.03067,-0.002 -0.06149,-0.003 -0.03575,10e-4 -0.07118,0.004 -0.106971,0.005 -0.04583,0.001 -0.09164,-0.004 -0.137459,-0.003 -0.02801,0 -0.05571,0.006 -0.08372,0.006 -0.03697,0.001 -0.07413,-0.003 -0.111104,-0.003 -0.07088,8e-4 -0.09479,0.002 -0.09612,0.003 0.01135,0.003 0.184762,0.006 -0.05839,5.3e-4 -0.01696,0.001 -0.03381,0.002 -0.05064,0.004 -0.01632,0.002 0.0024,0.007 -0.01497,0.0114 -0.08282,0.019 -0.140653,0.0225 -0.221692,0.0165 5.29e-4,-5e-5 0.0011,-2.3e-4 0.0011,-5.3e-4 0.0054,-0.0246 0.01087,-0.0497 0.01601,-0.0744 -0.02685,0.0224 -0.05408,0.0441 -0.08165,0.0656 -0.0011,7.9e-4 -0.0021,0.002 -0.0031,0.003 -0.0097,0.008 -0.03686,0.002 -0.03566,-0.01 0.01236,-0.12818 0.02736,-0.25651 0.04651,-0.38396 l -0.287319,0.0207 c -2.65e-4,2.2e-4 -7.94e-4,2.4e-4 -0.0011,5.3e-4 l -0.0011,-5.3e-4 h 0.0021 c 0.109579,-0.0825 0.216291,-0.16868 0.326593,-0.25012 -0.0149,0.0759 -0.02778,0.15239 -0.03927,0.22893 l 0.134876,-0.01 c 0.01521,-0.0956 0.02923,-0.19136 0.04134,-0.28732 0.0011,-0.009 -0.01505,-0.0134 -0.02479,-0.0109 0.0037,7.9e-4 0.0036,5.3e-4 -0.0021,5.3e-4 -7.94e-4,2.5e-4 -0.0019,5.3e-4 -0.0026,0.001 -0.03632,0.025 -0.07205,0.0503 -0.107487,0.0765 0.0057,-0.0292 0.01228,-0.0577 0.0186,-0.0868 0.0067,-0.002 0.05823,0.004 0.0832,0.007 0.05111,-0.0117 0.102536,-0.0245 0.154511,-0.0248 z m -0.181385,0.0269 c -0.0063,5.3e-4 -0.01199,0.002 -0.02326,0.006 -0.0019,0.001 -0.006,0.004 -0.0041,0.004 0.01572,-0.003 0.03176,-0.006 0.04754,-0.01 -7.94e-4,-7e-5 -7.94e-4,7e-5 -0.0016,0 -0.0047,0 -0.0087,-2e-5 -0.01188,0 -0.0024,1e-5 -0.0046,-1.8e-4 -0.0067,0 z m -0.118853,0.70021 c 0.0011,9e-5 0.0013,-2.1e-4 0.0031,0 0.01548,0.002 0.03061,0.005 0.04599,0.008 -0.01582,-0.002 -0.04078,-0.006 -0.04909,-0.008 z m 4.414199,1.14257 c 0.0093,-5.3e-4 0.02106,0.0301 0.03514,0.1018 0.03508,-0.003 0.107778,0.0424 0.151413,0.0455 0.127786,0.008 0.255952,0.0144 0.383955,0.0113 1.468311,-0.037 -0.04949,-0.0331 0.671793,-0.0331 v 1.60042 c -0.721272,0 0.796518,0.005 -0.671793,-0.0326 -0.128003,-0.003 -0.256169,0.003 -0.383955,0.0109 -0.04363,0.003 -0.116329,0.0486 -0.151413,0.0455 -0.02974,0.15152 -0.04797,0.12157 -0.05788,-0.008 -0.228711,-0.0243 -0.01159,-0.005 -0.30644,-0.0129 -0.09091,-0.002 -0.181912,-0.0108 -0.272852,-0.0114 -0.06265,0 -0.124944,0.009 -0.187584,0.0109 -0.367676,0.006 -0.0812,-0.0154 -0.337966,0.008 -0.343072,0.007 -0.686173,-0.0237 -1.029393,-0.005 -0.236204,-0.0105 -0.472048,-0.002 -0.707969,0.005 -0.122701,0.003 -0.132813,7.9e-4 -0.132808,-5.3e-4 -0.0011,-2.4e-4 -0.01037,0.001 -0.07183,0.007 -0.172842,0 -0.347215,-0.01 -0.519867,5.3e-4 -0.12833,0.005 -0.256693,-0.009 -0.384987,0.002 -0.05826,-0.009 -0.117263,0.007 -0.175183,0.003 -0.01638,3e-5 -0.0099,-0.001 -0.02016,0.001 v -1.64435 c 0.01027,0.002 0.0038,4e-5 0.02016,5.3e-4 0.05792,-0.004 0.116914,0.0125 0.175183,0.003 0.128294,0.011 0.256657,-0.003 0.384987,0.002 0.172652,0.01 0.347025,0.001 0.519867,0.001 0.06146,0.006 0.07085,0.008 0.07183,0.007 1.1e-5,-0.001 0.01011,-0.005 0.132808,-5.2e-4 0.235921,0.006 0.471765,0.0149 0.707969,0.005 0.34322,0.0192 0.686321,-0.0109 1.029393,-0.005 0.256765,0.0231 -0.02971,0.002 0.337966,0.008 0.06264,0.001 0.124936,0.01 0.187584,0.01 0.09094,-5.3e-4 0.181944,-0.009 0.272852,-0.0114 0.29487,-0.007 0.07773,0.0115 0.30644,-0.0129 0.0052,-0.0682 0.01249,-0.10924 0.02273,-0.11059 z m -2.590022,2.2226 c 0.0028,-2.5e-4 0.0054,-1.8e-4 0.0083,0 0.061,0.004 0.121558,0.0111 0.182417,0.017 0.110019,-0.007 0.220695,0.002 0.330729,-0.002 0.02745,-0.001 0.05436,-0.006 0.08165,-0.009 0.02996,2.6e-4 0.05997,0.001 0.08992,5.3e-4 0.01638,-0.001 0.03271,-0.005 0.04909,-0.005 0.04662,0.001 0.09302,0.007 0.139528,0.0103 0.0858,-0.002 0.195455,-0.0102 0.276984,0.0165 0.238842,0.0782 0.405109,0.20465 0.365353,0.48731 l 0.116789,0.002 c 0.0669,-0.0106 0.134996,-0.005 0.202055,-0.0145 0.02246,-0.003 0.04358,-0.0135 0.06615,-0.0155 0.05242,-0.004 0.105539,-0.002 0.15813,-0.004 0.159076,-0.006 0.03955,-0.007 0.192752,-0.002 0.04444,-0.001 0.08806,5.3e-4 0.132292,-5.3e-4 0.0057,0 0.01132,-0.002 0.01707,-0.003 v -0.001 c 0.0019,-9e-5 0.0038,0 0.0057,5.3e-4 0.07384,0.0195 0.145986,0.0446 0.219107,0.0667 0.13105,0.15733 0.280056,0.25405 0.112138,0.51315 -0.06171,0.0952 -0.198893,0.10995 -0.298172,0.16485 l -0.02016,-0.71676 c -0.09491,0.0548 -0.226841,0.0712 -0.284737,0.16433 -0.156496,0.25153 -0.01884,0.33403 0.109553,0.47698 0.06091,0.0144 0.122108,0.0262 0.182417,0.0429 0.0096,0.002 -0.01955,-8e-4 -0.02945,-5.3e-4 -0.01551,0 -0.031,0.002 -0.04651,0.002 -0.03368,0 -0.06776,-0.001 -0.101285,-0.004 -0.0084,-0.001 -0.01619,-0.005 -0.02429,-0.007 -0.04462,-0.002 -0.08917,-0.008 -0.133842,-0.008 -0.120433,0.002 -0.240157,0.0296 -0.360186,0.0336 -0.03306,0.001 -0.06573,-0.005 -0.0987,-0.008 l -0.169497,0.003 c -0.04688,-0.003 -0.09362,-0.008 -0.14056,-0.008 -0.06879,0.001 -0.137401,0.009 -0.20619,0.009 -0.04381,0 -0.08745,-0.009 -0.13126,-0.009 -0.476932,-0.004 0.0217,0.0189 -0.364834,-0.002 -0.07626,0.004 -0.152667,0.007 -0.228928,0.0104 -0.04863,-0.001 -0.09707,-0.006 -0.145727,-0.005 -0.06457,0.001 -0.12872,0.009 -0.19327,0.0114 -0.03167,0.001 -0.06342,-0.003 -0.09508,-0.002 -0.181695,0.006 -0.05797,0.0128 -0.15348,0.006 -0.04202,0.001 -0.05798,0.002 -0.06718,0.002 0.0136,-0.001 0.02625,-0.004 -0.04806,-0.008 -0.03885,-0.002 -0.07789,-10e-4 -0.116787,-0.002 -0.04392,-0.001 -0.08785,-0.005 -0.131776,-0.005 -0.05796,10e-4 -0.115713,0.008 -0.173633,0.0103 -0.02792,10e-4 -0.05578,0 -0.08372,0 v -0.70177 c 0.02794,0 0.05581,-0.001 0.08372,0 0.05792,0.002 0.115673,0.009 0.173633,0.01 0.03118,7.9e-4 0.06236,-0.001 0.09354,-0.003 v -0.49971 c 0.0537,0 0.248136,8e-4 0.308506,-0.003 0.02029,-0.001 0.04038,-0.006 0.06046,-0.009 0.02133,1.4e-4 0.04276,10e-4 0.06408,5.3e-4 0.0085,0 0.01685,-0.002 0.02532,-0.003 z m 1.071253,0.0357 c -0.122393,0.0697 -0.321035,0.0761 -0.366903,0.20929 -0.03032,0.088 -0.02752,0.18266 -0.0078,0.27698 0.05995,-0.003 -0.07065,0.004 0.296622,0.001 0.02606,0 0.05204,-0.003 0.07803,-0.005 z" />
    </clipPath>
  </defs>
  <g
     inkscape:label="Layer 1"
     inkscape:groupmode="layer"
     id="layer1">
    <rect
       style="fill:#ffffff;stroke:#000000;stroke-width:0.962;stroke-linecap:square;stroke-linejoin:bevel;stroke-miterlimit:4;stroke-dasharray:none;paint-order:stroke fill markers"
       id="rect31-0-5"
       width="93.249588"
       height="26.503338"
       x="64.192619"
       y="149.04294"
       ry="0"
       clip-path="url(#clipPath6244)"
       transform="matrix(0.6534663,0,0,0.34119998,-39.305114,-3.4397432)" />
    <path
       style="fill:none;stroke:#000000;stroke-width:0.268331px;stroke-linecap:butt;stroke-linejoin:miter;stroke-opacity:1"
       d="m 31.611705,54.454084 0.296013,0.0035"
       id="path1015-1-0" />
    <path
       style="fill:none;stroke:#000000;stroke-width:0.268331px;stroke-linecap:butt;stroke-linejoin:miter;stroke-opacity:1"
       d="m 34.223008,54.454084 0.296027,0.0035"
       id="path1099-5-6" />
    <path
       style="fill:none;stroke:#000000;stroke-width:0.268331px;stroke-linecap:butt;stroke-linejoin:miter;stroke-opacity:1"
       d="m 36.834329,54.454084 0.296027,0.0035"
       id="path1103-8-8" />
    <path
       style="fill:none;stroke:#000000;stroke-width:0.178262px;stroke-linecap:butt;stroke-linejoin:miter;stroke-opacity:1"
       d="M 2.6017096,51.933779 H 63.851511"
       id="path4355-8" />
    <text
       xml:space="preserve"
       style="font-style:normal;font-weight:normal;font-size:3.80292px;line-height:1.25;font-family:sans-serif;fill:#000000;fill-opacity:1;stroke:none;stroke-width:0.178262"
       x="4.7906895"
       y="49.041599"
       id="text8389-1-5"
       transform="scale(0.96990003,1.0310341)"><tspan
         sodipodi:role="line"
         id="tspan8387-9-1"
         style="font-size:3.80292px;stroke-width:0.178262"
         x="4.7906895"
         y="49.041599">t<tspan
   style="font-size:3.80292px;baseline-shift:sub;stroke-width:0.178262"
   id="tspan8911-3-2">1</tspan></tspan></text>
    <text
       xml:space="preserve"
       style="font-style:normal;font-weight:normal;font-size:3.80292px;line-height:1.25;font-family:sans-serif;text-align:center;text-anchor:middle;fill:#000000;fill-opacity:1;stroke:none;stroke-width:0.178262"
       x="33.846634"
       y="49.28019"
       id="text617-3"
       transform="scale(0.96990003,1.0310341)"><tspan
         sodipodi:role="line"
         id="tspan615-3"
         style="font-size:3.80292px;text-align:center;text-anchor:middle;stroke-width:0.178262"
         x="33.846634"
         y="49.28019">doc_id=<tspan
   style="font-style:normal;font-variant:normal;font-weight:normal;font-stretch:normal;font-family:sans-serif;-inkscape-font-specification:sans-serif;text-align:center;text-anchor:middle"
   id="tspan6364"
   dx="0 0">E, ...<tspan
   style="font-size:65%;baseline-shift:sub"
   id="tspan9687" /></tspan></tspan></text>
    <path
       style="fill:none;stroke:#000000;stroke-width:0.264583px;stroke-linecap:butt;stroke-linejoin:miter;stroke-opacity:1"
       d="m 10.31875,47.36042 v 4.497917"
       id="path9677" />
    <path
       style="fill:none;stroke:#000000;stroke-width:0.265;stroke-linecap:butt;stroke-linejoin:miter;stroke-dasharray:0.795, 0.795;stroke-dashoffset:0;stroke-opacity:1"
       d="m 10.31875,51.858337 v 4.7625"
       id="path9679" />
    <rect
       style="fill:#ffffff;stroke:#000000;stroke-width:0.504966;stroke-linecap:square;stroke-linejoin:bevel;stroke-miterlimit:4;stroke-dasharray:none;paint-order:stroke fill markers"
       id="rect31-0-55"
       width="61.219032"
       height="7.4325328"
       x="2.3909621"
       y="34.383732"
       ry="1.7260449" />
    <text
       xml:space="preserve"
       style="font-style:normal;font-weight:normal;font-size:3.80292px;line-height:1.25;font-family:sans-serif;text-align:center;word-spacing:0px;text-anchor:middle;fill:#000000;fill-opacity:1;stroke:none;stroke-width:0.178262"
       x="34.42178"
       y="38.312225"
       id="text617-4-0"
       transform="scale(0.96990003,1.0310341)"><tspan
         sodipodi:role="line"
         id="tspan615-6-3"
         style="font-size:3.80292px;text-align:center;text-anchor:middle;stroke-width:0.178262"
         x="34.42178"
         y="38.312225">Clustering</tspan></text>
    <path
       style="fill:none;stroke:#000000;stroke-width:0.264583px;stroke-linecap:butt;stroke-linejoin:miter;stroke-opacity:1;marker-end:url(#Arrow2Lend)"
       d="M 33.072916,47.360417 V 42.06875"
       id="path28185" />
    <rect
       style="fill:#ffffff;stroke:#000000;stroke-width:0.504966;stroke-linecap:square;stroke-linejoin:bevel;stroke-miterlimit:4;stroke-dasharray:none;paint-order:stroke fill markers"
       id="rect31-0-55-2"
       width="61.219032"
       height="7.4325328"
       x="2.3565767"
       y="21.15457"
       ry="1.7260449" />
    <text
       xml:space="preserve"
       style="font-style:normal;font-weight:normal;font-size:3.80292px;line-height:1.25;font-family:sans-serif;text-align:center;word-spacing:0px;text-anchor:middle;fill:#000000;fill-opacity:1;stroke:none;stroke-width:0.178262"
       x="34.42178"
       y="25.369629"
       id="text617-4-0-3"
       transform="scale(0.96990003,1.0310341)"><tspan
         sodipodi:role="line"
         id="tspan615-6-3-9"
         style="font-size:3.80292px;text-align:center;text-anchor:middle;stroke-width:0.178262"
         x="34.42178"
         y="25.369629">Finding centroids</tspan></text>
    <path
       style="fill:none;stroke:#000000;stroke-width:0.264583px;stroke-linecap:butt;stroke-linejoin:miter;stroke-opacity:1;marker-end:url(#Arrow2Lend)"
       d="M 33.072916,34.13125 V 28.839584"
       id="path46040" />
    <rect
       style="fill:#ffffff;stroke:#000000;stroke-width:0.647931;stroke-linecap:square;stroke-linejoin:bevel;stroke-miterlimit:4;stroke-dasharray:none;paint-order:stroke fill markers"
       id="rect31-0-3"
       width="61.076069"
       height="12.265492"
       x="2.4682734"
       y="2.8484476"
       ry="2.8483951" />
    <text
       xml:space="preserve"
       style="font-style:normal;font-weight:normal;font-size:3.80292px;line-height:1.25;font-family:sans-serif;text-align:center;word-spacing:0px;text-anchor:middle;fill:#000000;fill-opacity:1;stroke:none;stroke-width:0.178262"
       x="9.8702831"
       y="7.2612948"
       id="text617-4-08"
       transform="scale(0.96990003,1.0310341)"><tspan
         sodipodi:role="line"
         id="tspan615-6-5"
         style="font-size:3.80292px;text-align:center;text-anchor:middle;stroke-width:0.178262"
         x="9.8702831"
         y="7.2612948">HNSW</tspan></text>
    <path
       style="fill:none;stroke:#000000;stroke-width:0.264583px;stroke-linecap:butt;stroke-linejoin:miter;stroke-opacity:1;marker-end:url(#Arrow2Lend)"
       d="m 33.072916,20.902084 v -5.55625"
       id="path48811" />
    <text
       xml:space="preserve"
       style="font-style:normal;font-weight:normal;font-size:3.80292px;line-height:1.25;font-family:sans-serif;text-align:center;word-spacing:0px;text-anchor:middle;fill:#000000;fill-opacity:1;stroke:none;stroke-width:0.178262"
       x="34.099304"
       y="12.061111"
       id="text617-4-08-7"
       transform="scale(0.96990003,1.0310341)"><tspan
         sodipodi:role="line"
         id="tspan615-6-5-4"
         style="font-size:3.80292px;text-align:center;text-anchor:middle;stroke-width:0.178262"
         x="34.099304"
         y="12.061111"
         dx="0 0 0 0 0 0.25100765">token:clusted_id:centroid_vector</tspan></text>
  </g>
</svg>
